<mxfile host="app.diagrams.net" agent="Mozilla/5.0 (Windows NT 10.0; Win64; x64) AppleWebKit/537.36 (KHTML, like Gecko) Chrome/134.0.0.0 Safari/537.36" version="26.1.0">
  <diagram name="페이지-1" id="x-qoxIDKyncaZjw6psDb">
    <mxGraphModel dx="1221" dy="652" grid="0" gridSize="10" guides="1" tooltips="1" connect="1" arrows="1" fold="1" page="1" pageScale="1" pageWidth="827" pageHeight="1169" math="0" shadow="0">
      <root>
        <mxCell id="0" />
        <mxCell id="1" parent="0" />
        <mxCell id="WsY2jhsoXRLoYmbo4yZ--1" value="init" style="ellipse;whiteSpace=wrap;html=1;aspect=fixed;" parent="1" vertex="1">
          <mxGeometry x="170" y="200" width="80" height="80" as="geometry" />
        </mxCell>
        <mxCell id="WsY2jhsoXRLoYmbo4yZ--2" value="button0" style="endArrow=classic;html=1;rounded=0;" parent="1" edge="1">
          <mxGeometry x="0.1429" y="10" width="50" height="50" relative="1" as="geometry">
            <mxPoint x="250" y="239.5" as="sourcePoint" />
            <mxPoint x="320" y="239.5" as="targetPoint" />
            <mxPoint y="1" as="offset" />
          </mxGeometry>
        </mxCell>
        <mxCell id="WsY2jhsoXRLoYmbo4yZ--3" style="edgeStyle=orthogonalEdgeStyle;rounded=0;orthogonalLoop=1;jettySize=auto;html=1;exitX=1;exitY=0.5;exitDx=0;exitDy=0;" parent="1" source="WsY2jhsoXRLoYmbo4yZ--5" edge="1">
          <mxGeometry relative="1" as="geometry">
            <mxPoint x="360" y="190" as="targetPoint" />
          </mxGeometry>
        </mxCell>
        <mxCell id="WsY2jhsoXRLoYmbo4yZ--4" value="buton1" style="edgeLabel;html=1;align=center;verticalAlign=middle;resizable=0;points=[];" parent="WsY2jhsoXRLoYmbo4yZ--3" vertex="1" connectable="0">
          <mxGeometry x="-0.3579" y="1" relative="1" as="geometry">
            <mxPoint x="21" as="offset" />
          </mxGeometry>
        </mxCell>
        <mxCell id="WsY2jhsoXRLoYmbo4yZ--5" value="모드 설정" style="ellipse;whiteSpace=wrap;html=1;aspect=fixed;" parent="1" vertex="1">
          <mxGeometry x="320" y="200" width="80" height="80" as="geometry" />
        </mxCell>
        <mxCell id="WsY2jhsoXRLoYmbo4yZ--6" style="edgeStyle=orthogonalEdgeStyle;rounded=0;orthogonalLoop=1;jettySize=auto;html=1;exitX=0;exitY=0.5;exitDx=0;exitDy=0;" parent="1" source="WsY2jhsoXRLoYmbo4yZ--8" edge="1">
          <mxGeometry relative="1" as="geometry">
            <mxPoint x="210" y="630" as="targetPoint" />
          </mxGeometry>
        </mxCell>
        <mxCell id="WsY2jhsoXRLoYmbo4yZ--7" style="edgeStyle=orthogonalEdgeStyle;rounded=0;orthogonalLoop=1;jettySize=auto;html=1;exitX=1;exitY=0.5;exitDx=0;exitDy=0;entryX=0;entryY=0.5;entryDx=0;entryDy=0;" parent="1" source="WsY2jhsoXRLoYmbo4yZ--8" target="WsY2jhsoXRLoYmbo4yZ--31" edge="1">
          <mxGeometry relative="1" as="geometry" />
        </mxCell>
        <mxCell id="WsY2jhsoXRLoYmbo4yZ--8" value="세탁중" style="ellipse;whiteSpace=wrap;html=1;aspect=fixed;" parent="1" vertex="1">
          <mxGeometry x="320" y="720" width="80" height="80" as="geometry" />
        </mxCell>
        <mxCell id="WsY2jhsoXRLoYmbo4yZ--9" value="button2" style="endArrow=classic;html=1;rounded=0;" parent="1" edge="1">
          <mxGeometry x="-0.2" y="-20" width="50" height="50" relative="1" as="geometry">
            <mxPoint x="350" y="280" as="sourcePoint" />
            <mxPoint x="350" y="330" as="targetPoint" />
            <mxPoint as="offset" />
          </mxGeometry>
        </mxCell>
        <mxCell id="WsY2jhsoXRLoYmbo4yZ--10" value="button2" style="endArrow=classic;html=1;rounded=0;" parent="1" edge="1">
          <mxGeometry x="-0.2" y="-20" width="50" height="50" relative="1" as="geometry">
            <mxPoint x="350" y="410" as="sourcePoint" />
            <mxPoint x="350" y="460" as="targetPoint" />
            <mxPoint as="offset" />
          </mxGeometry>
        </mxCell>
        <mxCell id="WsY2jhsoXRLoYmbo4yZ--11" value="button2" style="endArrow=classic;html=1;rounded=0;" parent="1" edge="1">
          <mxGeometry x="-0.2" y="-20" width="50" height="50" relative="1" as="geometry">
            <mxPoint x="350" y="540" as="sourcePoint" />
            <mxPoint x="350" y="590" as="targetPoint" />
            <mxPoint as="offset" />
          </mxGeometry>
        </mxCell>
        <mxCell id="WsY2jhsoXRLoYmbo4yZ--12" value="button2" style="endArrow=classic;html=1;rounded=0;" parent="1" edge="1">
          <mxGeometry x="-0.2" y="-20" width="50" height="50" relative="1" as="geometry">
            <mxPoint x="359.5" y="670" as="sourcePoint" />
            <mxPoint x="359.5" y="720" as="targetPoint" />
            <mxPoint as="offset" />
          </mxGeometry>
        </mxCell>
        <mxCell id="WsY2jhsoXRLoYmbo4yZ--13" value="button3" style="endArrow=classic;html=1;rounded=0;" parent="1" edge="1">
          <mxGeometry x="0.2" y="-20" width="50" height="50" relative="1" as="geometry">
            <mxPoint x="370" y="330" as="sourcePoint" />
            <mxPoint x="370" y="280" as="targetPoint" />
            <mxPoint as="offset" />
          </mxGeometry>
        </mxCell>
        <mxCell id="WsY2jhsoXRLoYmbo4yZ--14" value="button3" style="endArrow=classic;html=1;rounded=0;" parent="1" edge="1">
          <mxGeometry x="0.2" y="-20" width="50" height="50" relative="1" as="geometry">
            <mxPoint x="370" y="460" as="sourcePoint" />
            <mxPoint x="370" y="410" as="targetPoint" />
            <mxPoint as="offset" />
          </mxGeometry>
        </mxCell>
        <mxCell id="WsY2jhsoXRLoYmbo4yZ--15" value="button3" style="endArrow=classic;html=1;rounded=0;" parent="1" edge="1">
          <mxGeometry x="0.2" y="-20" width="50" height="50" relative="1" as="geometry">
            <mxPoint x="370" y="590" as="sourcePoint" />
            <mxPoint x="370" y="540" as="targetPoint" />
            <mxPoint as="offset" />
          </mxGeometry>
        </mxCell>
        <mxCell id="WsY2jhsoXRLoYmbo4yZ--16" style="edgeStyle=orthogonalEdgeStyle;rounded=0;orthogonalLoop=1;jettySize=auto;html=1;exitX=1;exitY=0.5;exitDx=0;exitDy=0;" parent="1" source="WsY2jhsoXRLoYmbo4yZ--19" edge="1">
          <mxGeometry relative="1" as="geometry">
            <mxPoint x="360" y="320" as="targetPoint" />
          </mxGeometry>
        </mxCell>
        <mxCell id="WsY2jhsoXRLoYmbo4yZ--17" value="buton1" style="edgeLabel;html=1;align=center;verticalAlign=middle;resizable=0;points=[];" parent="WsY2jhsoXRLoYmbo4yZ--16" vertex="1" connectable="0">
          <mxGeometry x="-0.3579" y="1" relative="1" as="geometry">
            <mxPoint x="21" as="offset" />
          </mxGeometry>
        </mxCell>
        <mxCell id="WsY2jhsoXRLoYmbo4yZ--18" style="edgeStyle=orthogonalEdgeStyle;rounded=0;orthogonalLoop=1;jettySize=auto;html=1;exitX=0;exitY=0.5;exitDx=0;exitDy=0;" parent="1" source="WsY2jhsoXRLoYmbo4yZ--19" edge="1">
          <mxGeometry relative="1" as="geometry">
            <mxPoint x="210" y="340" as="targetPoint" />
            <Array as="points">
              <mxPoint x="210" y="370" />
            </Array>
          </mxGeometry>
        </mxCell>
        <mxCell id="WsY2jhsoXRLoYmbo4yZ--19" value="세탁시간 설정" style="ellipse;whiteSpace=wrap;html=1;aspect=fixed;" parent="1" vertex="1">
          <mxGeometry x="320" y="330" width="80" height="80" as="geometry" />
        </mxCell>
        <mxCell id="WsY2jhsoXRLoYmbo4yZ--20" style="edgeStyle=orthogonalEdgeStyle;rounded=0;orthogonalLoop=1;jettySize=auto;html=1;exitX=1;exitY=0.5;exitDx=0;exitDy=0;" parent="1" source="WsY2jhsoXRLoYmbo4yZ--23" edge="1">
          <mxGeometry relative="1" as="geometry">
            <mxPoint x="360" y="450" as="targetPoint" />
          </mxGeometry>
        </mxCell>
        <mxCell id="WsY2jhsoXRLoYmbo4yZ--21" value="buton1" style="edgeLabel;html=1;align=center;verticalAlign=middle;resizable=0;points=[];" parent="WsY2jhsoXRLoYmbo4yZ--20" vertex="1" connectable="0">
          <mxGeometry x="-0.3579" y="1" relative="1" as="geometry">
            <mxPoint x="21" as="offset" />
          </mxGeometry>
        </mxCell>
        <mxCell id="WsY2jhsoXRLoYmbo4yZ--22" style="edgeStyle=orthogonalEdgeStyle;rounded=0;orthogonalLoop=1;jettySize=auto;html=1;" parent="1" source="WsY2jhsoXRLoYmbo4yZ--23" edge="1">
          <mxGeometry relative="1" as="geometry">
            <mxPoint x="210" y="370" as="targetPoint" />
          </mxGeometry>
        </mxCell>
        <mxCell id="WsY2jhsoXRLoYmbo4yZ--23" value="헹굼횟수 설정" style="ellipse;whiteSpace=wrap;html=1;aspect=fixed;" parent="1" vertex="1">
          <mxGeometry x="320" y="460" width="80" height="80" as="geometry" />
        </mxCell>
        <mxCell id="WsY2jhsoXRLoYmbo4yZ--24" style="edgeStyle=orthogonalEdgeStyle;rounded=0;orthogonalLoop=1;jettySize=auto;html=1;exitX=1;exitY=0.5;exitDx=0;exitDy=0;" parent="1" source="WsY2jhsoXRLoYmbo4yZ--27" edge="1">
          <mxGeometry relative="1" as="geometry">
            <mxPoint x="360" y="580" as="targetPoint" />
          </mxGeometry>
        </mxCell>
        <mxCell id="WsY2jhsoXRLoYmbo4yZ--25" value="buton1" style="edgeLabel;html=1;align=center;verticalAlign=middle;resizable=0;points=[];" parent="WsY2jhsoXRLoYmbo4yZ--24" vertex="1" connectable="0">
          <mxGeometry x="-0.3579" y="1" relative="1" as="geometry">
            <mxPoint x="21" as="offset" />
          </mxGeometry>
        </mxCell>
        <mxCell id="WsY2jhsoXRLoYmbo4yZ--26" style="edgeStyle=orthogonalEdgeStyle;rounded=0;orthogonalLoop=1;jettySize=auto;html=1;exitX=0;exitY=0.5;exitDx=0;exitDy=0;" parent="1" source="WsY2jhsoXRLoYmbo4yZ--27" edge="1">
          <mxGeometry relative="1" as="geometry">
            <mxPoint x="210" y="500" as="targetPoint" />
          </mxGeometry>
        </mxCell>
        <mxCell id="WsY2jhsoXRLoYmbo4yZ--27" value="탈수시간 설정" style="ellipse;whiteSpace=wrap;html=1;aspect=fixed;" parent="1" vertex="1">
          <mxGeometry x="320" y="590" width="80" height="80" as="geometry" />
        </mxCell>
        <mxCell id="WsY2jhsoXRLoYmbo4yZ--28" value="" style="endArrow=classic;html=1;rounded=0;entryX=0.5;entryY=1;entryDx=0;entryDy=0;" parent="1" source="WsY2jhsoXRLoYmbo4yZ--5" target="WsY2jhsoXRLoYmbo4yZ--1" edge="1">
          <mxGeometry width="50" height="50" relative="1" as="geometry">
            <mxPoint x="220" y="360" as="sourcePoint" />
            <mxPoint x="200" y="340" as="targetPoint" />
            <Array as="points">
              <mxPoint x="270" y="340" />
              <mxPoint x="210" y="340" />
            </Array>
          </mxGeometry>
        </mxCell>
        <mxCell id="WsY2jhsoXRLoYmbo4yZ--29" value="button0" style="edgeLabel;html=1;align=center;verticalAlign=middle;resizable=0;points=[];" parent="WsY2jhsoXRLoYmbo4yZ--28" vertex="1" connectable="0">
          <mxGeometry x="0.6737" y="1" relative="1" as="geometry">
            <mxPoint x="-19" as="offset" />
          </mxGeometry>
        </mxCell>
        <mxCell id="WsY2jhsoXRLoYmbo4yZ--30" style="edgeStyle=orthogonalEdgeStyle;rounded=0;orthogonalLoop=1;jettySize=auto;html=1;exitX=0.5;exitY=0;exitDx=0;exitDy=0;entryX=0.5;entryY=0;entryDx=0;entryDy=0;" parent="1" source="WsY2jhsoXRLoYmbo4yZ--31" target="WsY2jhsoXRLoYmbo4yZ--1" edge="1">
          <mxGeometry relative="1" as="geometry">
            <mxPoint x="210" y="150" as="targetPoint" />
            <Array as="points">
              <mxPoint x="530" y="375" />
              <mxPoint x="531" y="375" />
              <mxPoint x="531" y="140" />
              <mxPoint x="210" y="140" />
            </Array>
          </mxGeometry>
        </mxCell>
        <mxCell id="WsY2jhsoXRLoYmbo4yZ--31" value="세탁 완료&lt;div&gt;음악 재생&lt;/div&gt;&lt;div&gt;LED blink&lt;/div&gt;" style="ellipse;whiteSpace=wrap;html=1;aspect=fixed;" parent="1" vertex="1">
          <mxGeometry x="490" y="720" width="80" height="80" as="geometry" />
        </mxCell>
        <mxCell id="HISbIdb2itY4wOpg6uhV-32" value="세탁 중지" style="ellipse;whiteSpace=wrap;html=1;aspect=fixed;" vertex="1" parent="1">
          <mxGeometry x="405" y="653" width="80" height="80" as="geometry" />
        </mxCell>
        <mxCell id="HISbIdb2itY4wOpg6uhV-33" value="button3" style="endArrow=classic;html=1;rounded=0;exitX=0.027;exitY=0.696;exitDx=0;exitDy=0;exitPerimeter=0;entryX=0.785;entryY=0.078;entryDx=0;entryDy=0;entryPerimeter=0;" edge="1" parent="1" source="HISbIdb2itY4wOpg6uhV-32" target="WsY2jhsoXRLoYmbo4yZ--8">
          <mxGeometry x="-0.2" y="-20" width="50" height="50" relative="1" as="geometry">
            <mxPoint x="419" y="703" as="sourcePoint" />
            <mxPoint x="390" y="746" as="targetPoint" />
            <mxPoint as="offset" />
          </mxGeometry>
        </mxCell>
        <mxCell id="HISbIdb2itY4wOpg6uhV-34" value="button3" style="endArrow=classic;html=1;rounded=0;exitX=0.923;exitY=0.273;exitDx=0;exitDy=0;exitPerimeter=0;entryX=0.198;entryY=0.906;entryDx=0;entryDy=0;entryPerimeter=0;" edge="1" parent="1" source="WsY2jhsoXRLoYmbo4yZ--8" target="HISbIdb2itY4wOpg6uhV-32">
          <mxGeometry x="0.0427" y="-14" width="50" height="50" relative="1" as="geometry">
            <mxPoint x="421" y="726" as="sourcePoint" />
            <mxPoint x="400" y="744" as="targetPoint" />
            <mxPoint as="offset" />
          </mxGeometry>
        </mxCell>
      </root>
    </mxGraphModel>
  </diagram>
</mxfile>
